<svg width="14" height="15" viewBox="0 0 14 15" fill="none" xmlns="http://www.w3.org/2000/svg">
<path d="M7.72512 14.1294C8.04395 14.1294 8.36278 14.1294 8.68161 13.9705V13.0172C8.68161 12.2228 8.68161 11.4284 8.84102 10.7929C8.52219 10.9518 8.04395 10.9518 7.72512 10.9518C5.65273 10.9518 3.89917 9.20412 3.89917 7.13868C3.89917 5.07324 5.65273 3.32556 7.72512 3.32556C9.31927 3.32556 10.754 4.27884 11.3917 5.70876C12.0293 4.91436 12.9858 4.11996 13.7829 3.48444C11.7105 0.147963 7.40629 -0.964197 4.05859 1.10124C0.710885 3.16668 -0.405017 7.45644 1.66737 10.7929C2.94269 12.8584 5.17449 14.1294 7.72512 14.1294Z" fill="#00A0C1"/>
</svg>
